<svg xmlns="http://www.w3.org/2000/svg" viewBox="0 0 512 512" role="img" aria-label="Video Batch Editor">
  <defs>
    <linearGradient id="bg" x1="88" y1="64" x2="424" y2="448" gradientUnits="userSpaceOnUse">
      <stop offset="0" stop-color="#0f8f83"/>
      <stop offset="0.56" stop-color="#315f9c"/>
      <stop offset="1" stop-color="#bc7514"/>
    </linearGradient>
    <linearGradient id="panel" x1="154" y1="136" x2="370" y2="376" gradientUnits="userSpaceOnUse">
      <stop offset="0" stop-color="#ffffff"/>
      <stop offset="1" stop-color="#dbeee9"/>
    </linearGradient>
  </defs>
  <rect x="48" y="48" width="416" height="416" rx="84" fill="url(#bg)"/>
  <rect x="118" y="132" width="276" height="198" rx="30" fill="url(#panel)" opacity="0.96"/>
  <path d="M394 190l54-30c12-7 26 2 26 16v110c0 14-14 23-26 16l-54-30z" fill="#edf7f4" opacity="0.94"/>
  <path d="M230 190c0-15 17-24 30-16l88 54c12 8 12 26 0 34l-88 54c-13 8-30-1-30-16z" fill="#0f8f83"/>
  <path d="M122 372h268" stroke="#edf7f4" stroke-width="28" stroke-linecap="round"/>
  <path d="M122 372h112" stroke="#f5b64e" stroke-width="28" stroke-linecap="round"/>
  <circle cx="264" cy="372" r="24" fill="#ffffff"/>
  <path d="M136 164h54M136 206h54M136 248h54" stroke="#315f9c" stroke-width="18" stroke-linecap="round" opacity="0.8"/>
</svg>
