<svg xmlns="http://www.w3.org/2000/svg" viewBox="0 0 512 512">
  <defs>
    <linearGradient id="bg" x1="0%" y1="0%" x2="100%" y2="100%">
      <stop offset="0%" stop-color="#3b82f6" />
      <stop offset="100%" stop-color="#2563eb" />
    </linearGradient>
    <filter id="shadow" x="-20%" y="-20%" width="140%" height="140%">
      <feDropShadow dx="0" dy="8" stdDeviation="12" flood-color="#000000" flood-opacity="0.15" />
    </filter>
  </defs>
  
  <rect width="512" height="512" rx="112" fill="url(#bg)" />
  
  <g transform="translate(136, 120)" filter="url(#shadow)">
    <rect width="240" height="296" rx="32" fill="#ffffff" />
    <path d="M120 40H120C120 40 120 24 120 24C120 10.7452 109.255 0 96 0H144C130.745 0 120 10.7452 120 24C120 24 120 40 120 40Z" fill="#93c5fd" />
    <rect x="104" y="-8" width="32" height="48" rx="16" fill="#1e3a8a" />
    
    <rect x="48" y="100" width="144" height="24" rx="12" fill="#e2e8f0" />
    <rect x="48" y="148" width="104" height="24" rx="12" fill="#e2e8f0" />
    <rect x="48" y="196" width="120" height="24" rx="12" fill="#e2e8f0" />
  </g>
</svg>
