<svg width="512" height="512" viewBox="0 0 512 512" fill="none" xmlns="http://www.w3.org/2000/svg">
  <defs>
    <linearGradient id="bg" x1="0" y1="0" x2="512" y2="512" gradientUnits="userSpaceOnUse">
      <stop stop-color="#11151c"/>
      <stop offset="1" stop-color="#0b0d12"/>
    </linearGradient>
    <linearGradient id="accent" x1="120" y1="120" x2="392" y2="392" gradientUnits="userSpaceOnUse">
      <stop stop-color="#34d399"/>
      <stop offset="1" stop-color="#0d9488"/>
    </linearGradient>
    <radialGradient id="glow" cx="256" cy="248" r="200" gradientUnits="userSpaceOnUse">
      <stop stop-color="#10b981" stop-opacity="0.28"/>
      <stop offset="1" stop-color="#10b981" stop-opacity="0"/>
    </radialGradient>
  </defs>

  <rect x="16" y="16" width="480" height="480" rx="112" fill="url(#bg)"/>
  <rect x="16" y="16" width="480" height="480" rx="112" fill="url(#glow)"/>
  <rect x="17.5" y="17.5" width="477" height="477" rx="110.5" stroke="#34d399" stroke-opacity="0.18" stroke-width="3"/>

  <!-- code brackets: developer context -->
  <path d="M168 176 L120 256 L168 336" stroke="url(#accent)" stroke-width="26" stroke-linecap="round" stroke-linejoin="round" opacity="0.9"/>
  <path d="M344 176 L392 256 L344 336" stroke="url(#accent)" stroke-width="26" stroke-linecap="round" stroke-linejoin="round" opacity="0.9"/>

  <!-- central wrench: tools -->
  <g transform="rotate(45 256 256)">
    <path d="M256 150
             a52 52 0 0 0 -33 92
             l0 118
             a33 33 0 0 0 66 0
             l0 -118
             a52 52 0 0 0 -33 -92 z"
          fill="#0b0d12" stroke="url(#accent)" stroke-width="22" stroke-linejoin="round"/>
    <circle cx="256" cy="372" r="15" fill="#34d399"/>
  </g>

  <!-- spark: vibe coding -->
  <path d="M372 138 l10 26 l26 10 l-26 10 l-10 26 l-10 -26 l-26 -10 l26 -10 z" fill="#5eead4"/>
</svg>
